<svg viewBox="0 0 576 512" width="100" title="star">
  <defs>
    <linearGradient id="100">
      <stop offset="100%" stop-color="#3d9268"/>
      <stop offset="0%" stop-color="#dadadb"/>
    </linearGradient>
    <linearGradient id="50">
      <stop offset="50%" stop-color="#3d9268"/>
      <stop offset="50%" stop-color="#dadadb"/>
    </linearGradient>
    <linearGradient id="0">
      <stop offset="100%" stop-color="#dadadb"/>
      <stop offset="100%" stop-color="#dadadb"/>
    </linearGradient>
  </defs>
  <path fill="url(#100)" d="M259.3 17.8L194 150.2 47.9 171.5c-26.2 3.8-36.7 36.1-17.7 54.6l105.7 103-25 145.5c-4.5 26.3 23.2 46 46.4 33.7L288 439.6l130.7 68.7c23.2 12.2 50.9-7.4 46.4-33.7l-25-145.5 105.7-103c19-18.5 8.5-50.8-17.7-54.6L382 150.2 316.7 17.8c-11.7-23.6-45.6-23.9-57.4 0z" />
</svg>
<svg viewBox="0 0 576 512" width="100" title="star">
  <path fill="url(#100)" d="M259.3 17.8L194 150.2 47.9 171.5c-26.2 3.8-36.7 36.1-17.7 54.6l105.7 103-25 145.5c-4.5 26.3 23.2 46 46.4 33.7L288 439.6l130.7 68.7c23.2 12.2 50.9-7.4 46.4-33.7l-25-145.5 105.7-103c19-18.5 8.5-50.8-17.7-54.6L382 150.2 316.7 17.8c-11.7-23.6-45.6-23.9-57.4 0z" />
</svg>
<svg viewBox="0 0 576 512" width="100" title="star">
  <path fill="url(#100)" d="M259.3 17.8L194 150.2 47.9 171.5c-26.2 3.8-36.7 36.1-17.7 54.6l105.7 103-25 145.5c-4.5 26.3 23.2 46 46.4 33.7L288 439.6l130.7 68.7c23.2 12.2 50.9-7.4 46.4-33.7l-25-145.5 105.7-103c19-18.5 8.5-50.8-17.7-54.6L382 150.2 316.7 17.8c-11.7-23.6-45.6-23.9-57.4 0z" />
</svg>
<svg viewBox="0 0 576 512" width="100" title="star">
  <path fill="url(#0)" d="M259.3 17.8L194 150.2 47.9 171.5c-26.2 3.8-36.7 36.1-17.7 54.6l105.7 103-25 145.5c-4.5 26.3 23.2 46 46.4 33.7L288 439.6l130.7 68.7c23.2 12.2 50.9-7.4 46.4-33.7l-25-145.5 105.7-103c19-18.5 8.5-50.8-17.7-54.6L382 150.2 316.7 17.8c-11.7-23.6-45.6-23.9-57.4 0z" />
</svg>
<svg viewBox="0 0 576 512" width="100" title="star">
  <path fill="url(#0)" d="M259.3 17.8L194 150.2 47.9 171.5c-26.2 3.8-36.7 36.1-17.7 54.6l105.7 103-25 145.5c-4.5 26.3 23.2 46 46.4 33.7L288 439.6l130.7 68.7c23.2 12.2 50.9-7.4 46.4-33.7l-25-145.5 105.7-103c19-18.5 8.5-50.8-17.7-54.6L382 150.2 316.7 17.8c-11.7-23.6-45.6-23.9-57.4 0z" />
</svg>